#N canvas 428 33 737 325 12;
#X obj 14 12 inlet;
#X obj 14 41 route 0 1 2 3 4 5 6 7, f 98;
#X msg 13 117 3 4;
#X msg 46 117 5 6;
#X obj 15 281 pack float float float float float float float float
float float, f 65;
#X obj 13 71 select 0 1;
#N canvas 415 23 450 325 frac2flt 1;
#X obj 70 88 inlet;
#X obj 70 117 unpack;
#X obj 70 143 /;
#X obj 71 171 outlet;
#X connect 0 0 1 0;
#X connect 1 0 2 0;
#X connect 1 1 2 1;
#X connect 2 0 3 0;
#X restore 80 212 pd frac2flt;
#X connect 0 0 1 0;
#X connect 1 0 5 0;
#X connect 2 0 4 0;
#X connect 3 0 4 0;
#X connect 5 0 2 0;
#X connect 5 1 3 0;
