#N canvas 65 73 450 325 12;
#X obj 17 16 inlet;
#X text 60 16 base frequency;
#X obj 234 16 inlet;
#X text 278 16 ratio;
#X obj 116 106 *;
#X obj 118 209 outlet;
#X connect 0 0 4 0;
#X connect 2 0 4 1;
#X connect 4 0 5 0;
