#N canvas 321 23 870 755 12;
#X obj 69 283 sel 97 115 100 102 103 104 106 107 108 59;
#X obj 69 312 bng 15 250 50 0 empty empty empty 17 7 0 10 -262144 -1
-1;
#X obj 69 338 0;
#X obj 96 312 bng 15 250 50 0 empty empty empty 17 7 0 10 -262144 -1
-1;
#X obj 123 312 bng 15 250 50 0 empty empty empty 17 7 0 10 -262144
-1 -1;
#X obj 150 312 bng 15 250 50 0 empty empty empty 17 7 0 10 -262144
-1 -1;
#X obj 177 312 bng 15 250 50 0 empty empty empty 17 7 0 10 -262144
-1 -1;
#X obj 204 312 bng 15 250 50 0 empty empty empty 17 7 0 10 -262144
-1 -1;
#X obj 231 312 bng 15 250 50 0 empty empty empty 17 7 0 10 -262144
-1 -1;
#X obj 258 312 bng 15 250 50 0 empty empty empty 17 7 0 10 -262144
-1 -1;
#X obj 285 312 bng 15 250 50 0 empty empty empty 17 7 0 10 -262144
-1 -1;
#X obj 312 312 bng 15 250 50 0 empty empty empty 17 7 0 10 -262144
-1 -1;
#X obj 96 338 1;
#X obj 123 338 2;
#X obj 150 338 3;
#X obj 177 338 4;
#X obj 204 338 5;
#X obj 231 338 6;
#X obj 258 338 7;
#X obj 285 338 8;
#X obj 312 338 9;
#X obj 31 22 key;
#X obj 428 395 pack;
#X obj 200 23 keyup;
#X obj 66 425 bng 15 250 50 0 empty empty empty 17 7 0 10 -262144 -1
-1;
#X obj 66 451 0;
#X obj 93 425 bng 15 250 50 0 empty empty empty 17 7 0 10 -262144 -1
-1;
#X obj 120 425 bng 15 250 50 0 empty empty empty 17 7 0 10 -262144
-1 -1;
#X obj 147 425 bng 15 250 50 0 empty empty empty 17 7 0 10 -262144
-1 -1;
#X obj 174 425 bng 15 250 50 0 empty empty empty 17 7 0 10 -262144
-1 -1;
#X obj 201 425 bng 15 250 50 0 empty empty empty 17 7 0 10 -262144
-1 -1;
#X obj 228 425 bng 15 250 50 0 empty empty empty 17 7 0 10 -262144
-1 -1;
#X obj 255 425 bng 15 250 50 0 empty empty empty 17 7 0 10 -262144
-1 -1;
#X obj 93 451 1;
#X obj 120 451 2;
#X obj 147 451 3;
#X obj 174 451 4;
#X obj 201 451 5;
#X obj 228 451 6;
#X obj 255 451 7;
#X obj 428 514 pack;
#X obj 70 182 bng 15 250 50 0 empty empty empty 17 7 0 10 -262144 -1
-1;
#X obj 70 208 0;
#X obj 97 182 bng 15 250 50 0 empty empty empty 17 7 0 10 -262144 -1
-1;
#X obj 124 182 bng 15 250 50 0 empty empty empty 17 7 0 10 -262144
-1 -1;
#X obj 151 182 bng 15 250 50 0 empty empty empty 17 7 0 10 -262144
-1 -1;
#X obj 178 182 bng 15 250 50 0 empty empty empty 17 7 0 10 -262144
-1 -1;
#X obj 205 182 bng 15 250 50 0 empty empty empty 17 7 0 10 -262144
-1 -1;
#X obj 232 182 bng 15 250 50 0 empty empty empty 17 7 0 10 -262144
-1 -1;
#X obj 259 182 bng 15 250 50 0 empty empty empty 17 7 0 10 -262144
-1 -1;
#X obj 286 182 bng 15 250 50 0 empty empty empty 17 7 0 10 -262144
-1 -1;
#X obj 313 182 bng 15 250 50 0 empty empty empty 17 7 0 10 -262144
-1 -1;
#X obj 97 208 1;
#X obj 124 208 2;
#X obj 151 208 3;
#X obj 178 208 4;
#X obj 205 208 5;
#X obj 232 208 6;
#X obj 259 208 7;
#X obj 286 208 8;
#X obj 313 208 9;
#X obj 30 54 trigger float 1, f 19;
#X obj 199 55 trigger float 0;
#X obj 66 396 sel 122 120 99 118 98 110 109 44;
#X obj 71 152 sel 113 119 101 114 116 121 117 105 111 112;
#X obj 428 421 list prepend 1;
#X obj 428 540 list prepend 0;
#X obj 369 645 outlet;
#X obj 428 273 list prepend 2;
#X connect 0 0 1 0;
#X connect 0 1 3 0;
#X connect 0 2 4 0;
#X connect 0 3 5 0;
#X connect 0 4 6 0;
#X connect 0 5 7 0;
#X connect 0 6 8 0;
#X connect 0 7 9 0;
#X connect 0 8 10 0;
#X connect 0 9 11 0;
#X connect 1 0 2 0;
#X connect 2 0 22 0;
#X connect 3 0 12 0;
#X connect 4 0 13 0;
#X connect 5 0 14 0;
#X connect 6 0 15 0;
#X connect 7 0 16 0;
#X connect 8 0 17 0;
#X connect 9 0 18 0;
#X connect 10 0 19 0;
#X connect 11 0 20 0;
#X connect 12 0 22 0;
#X connect 13 0 22 0;
#X connect 14 0 22 0;
#X connect 15 0 22 0;
#X connect 16 0 22 0;
#X connect 17 0 22 0;
#X connect 18 0 22 0;
#X connect 19 0 22 0;
#X connect 20 0 22 0;
#X connect 21 0 61 0;
#X connect 22 0 65 0;
#X connect 23 0 62 0;
#X connect 24 0 25 0;
#X connect 25 0 40 0;
#X connect 26 0 33 0;
#X connect 27 0 34 0;
#X connect 28 0 35 0;
#X connect 29 0 36 0;
#X connect 30 0 37 0;
#X connect 31 0 38 0;
#X connect 32 0 39 0;
#X connect 33 0 40 0;
#X connect 34 0 40 0;
#X connect 35 0 40 0;
#X connect 36 0 40 0;
#X connect 37 0 40 0;
#X connect 38 0 40 0;
#X connect 39 0 40 0;
#X connect 40 0 66 0;
#X connect 41 0 42 0;
#X connect 42 0 68 0;
#X connect 43 0 52 0;
#X connect 44 0 53 0;
#X connect 45 0 54 0;
#X connect 46 0 55 0;
#X connect 47 0 56 0;
#X connect 48 0 57 0;
#X connect 49 0 58 0;
#X connect 50 0 59 0;
#X connect 51 0 60 0;
#X connect 52 0 68 0;
#X connect 53 0 68 0;
#X connect 54 0 68 0;
#X connect 55 0 68 0;
#X connect 56 0 68 0;
#X connect 57 0 68 0;
#X connect 58 0 68 0;
#X connect 59 0 68 0;
#X connect 60 0 68 0;
#X connect 61 0 0 0;
#X connect 61 0 63 0;
#X connect 61 0 64 0;
#X connect 61 1 22 1;
#X connect 61 1 40 1;
#X connect 62 0 0 0;
#X connect 62 0 63 0;
#X connect 62 1 22 1;
#X connect 62 1 40 1;
#X connect 63 0 24 0;
#X connect 63 1 26 0;
#X connect 63 2 27 0;
#X connect 63 3 28 0;
#X connect 63 4 29 0;
#X connect 63 5 30 0;
#X connect 63 6 31 0;
#X connect 63 7 32 0;
#X connect 64 0 41 0;
#X connect 64 1 43 0;
#X connect 64 2 44 0;
#X connect 64 3 45 0;
#X connect 64 4 46 0;
#X connect 64 5 47 0;
#X connect 64 6 48 0;
#X connect 64 7 49 0;
#X connect 64 8 50 0;
#X connect 64 9 51 0;
#X connect 65 0 67 0;
#X connect 66 0 67 0;
#X connect 68 0 67 0;
