#N canvas 257 77 592 544 12;
#X obj 53 420 dac~;
#X obj 39 25 keymap;
#X obj 39 59 route 0 1 2;
#X text 89 25 0: bend 1: play 2: transpose;
#X text 483 228 key;
#X floatatom 440 228 5 12 128 0 - - -, f 5;
#X obj 440 174 loadbang;
#X msg 440 200 48;
#X obj 400 229 +;
#X obj 400 97 moses 5;
#X obj 400 125 - 5;
#X obj 446 125 - 4, f 4;
#X obj 400 258 mtof;
#X obj 128 198 table base_frequencies 12;
#X obj 63 99 tabread base_frequencies;
#X floatatom 400 287 5 0 0 0 - - -, f 5;
#X text 440 287 base freq;
#X connect 1 0 2 0;
#X connect 2 1 14 0;
#X connect 2 2 9 0;
#X connect 5 0 8 1;
#X connect 6 0 7 0;
#X connect 7 0 5 0;
#X connect 8 0 5 0;
#X connect 8 0 12 0;
#X connect 9 0 10 0;
#X connect 9 1 11 0;
#X connect 10 0 8 0;
#X connect 11 0 8 0;
#X connect 12 0 15 0;
#X coords 0 -1 1 1 200 200 1 0 0;
